<svg xmlns="http://www.w3.org/2000/svg" aria-hidden="true" style="position:absolute;width:0;height:0;overflow:hidden">
  <defs>
    <symbol id="icon-facebook" viewBox="0 0 32 32">
      <path d="M21.329 5.313h2.921V.225C23.746.156 22.013 0 19.994 0c-4.212 0-7.097 2.649-7.097 7.519V12H8.249v5.688h4.648V32h5.699V17.689h4.46l.708-5.688h-5.169V8.082c.001-1.644.444-2.769 2.735-2.769z"/>
    </symbol>
    <symbol id="icon-instagram" viewBox="0 0 32 32">
      <path d="M31.969 9.408c-.075-1.7-.35-2.869-.744-3.882a7.803 7.803 0 0 0-1.85-2.838A7.867 7.867 0 0 0 26.543.844C25.524.45 24.361.175 22.661.1 20.948.019 20.404 0 16.06 0s-4.888.019-6.595.094c-1.7.075-2.869.35-3.882.744a7.803 7.803 0 0 0-2.838 1.85A7.867 7.867 0 0 0 .901 5.52C.507 6.539.232 7.702.157 9.402c-.081 1.713-.1 2.257-.1 6.601s.019 4.888.094 6.595c.075 1.7.35 2.869.744 3.882a7.895 7.895 0 0 0 1.85 2.838 7.867 7.867 0 0 0 2.832 1.844c1.019.394 2.182.669 3.882.744 1.706.075 2.25.094 6.595.094s4.888-.019 6.595-.094c1.7-.075 2.869-.35 3.882-.744a8.181 8.181 0 0 0 4.682-4.682c.394-1.019.669-2.182.744-3.882.075-1.707.094-2.25.094-6.595s-.006-4.888-.081-6.595zm-2.882 13.065c-.069 1.563-.331 2.407-.55 2.969a5.31 5.31 0 0 1-3.038 3.038c-.563.219-1.413.481-2.969.55-1.688.075-2.194.094-6.464.094s-4.782-.019-6.464-.094c-1.563-.069-2.407-.331-2.969-.55a4.926 4.926 0 0 1-1.838-1.194 4.974 4.974 0 0 1-1.194-1.838c-.219-.563-.481-1.413-.55-2.969-.075-1.688-.094-2.194-.094-6.464s.019-4.782.094-6.464c.069-1.563.331-2.407.55-2.969a4.868 4.868 0 0 1 1.2-1.838A4.974 4.974 0 0 1 6.639 3.55c.563-.219 1.413-.481 2.969-.55 1.688-.075 2.194-.094 6.464-.094 4.276 0 4.782.019 6.464.094 1.563.069 2.407.331 2.969.55a4.914 4.914 0 0 1 1.838 1.194 4.974 4.974 0 0 1 1.194 1.838c.219.563.481 1.413.55 2.969.075 1.688.094 2.194.094 6.464s-.019 4.77-.094 6.458z"/>
      <path d="M16.059 7.783c-4.538 0-8.22 3.682-8.22 8.22s3.682 8.22 8.22 8.22 8.22-3.682 8.22-8.22-3.682-8.22-8.22-8.22zm0 13.552a5.333 5.333 0 0 1 0-10.664 5.333 5.333 0 0 1 0 10.664zM26.524 7.458a1.919 1.919 0 1 1-3.838 0 1.919 1.919 0 0 1 3.838 0z"/>
    </symbol>
    <symbol id="icon-linkedin" viewBox="0 0 32 32">
      <path d="M31.992 32v-.001H32V20.263c0-5.741-1.236-10.164-7.948-10.164-3.227 0-5.392 1.771-6.276 3.449h-.093v-2.913h-6.364v21.364h6.627V21.42c0-2.785.528-5.479 3.977-5.479 3.399 0 3.449 3.179 3.449 5.657v10.401h6.62zM.528 10.636h6.635V32H.528V10.636zM3.843 0C1.722 0 0 1.721 0 3.843s1.721 3.879 3.843 3.879c2.121 0 3.843-1.757 3.843-3.879A3.846 3.846 0 0 0 3.843 0z"/>
    </symbol>
    <symbol id="icon-twitter" viewBox="0 0 32 32">
      <path d="M32 6.078c-1.19.522-2.458.868-3.78 1.036a6.523 6.523 0 0 0 2.886-3.626 13.11 13.11 0 0 1-4.16 1.588A6.574 6.574 0 0 0 22.154 3c-3.632 0-6.556 2.948-6.556 6.562 0 .52.044 1.02.152 1.496-5.454-.266-10.28-2.88-13.522-6.862a6.605 6.605 0 0 0-.898 3.316 6.57 6.57 0 0 0 2.914 5.452 6.479 6.479 0 0 1-2.964-.808v.072c0 3.188 2.274 5.836 5.256 6.446a6.548 6.548 0 0 1-1.72.216 5.8 5.8 0 0 1-1.242-.112c.85 2.598 3.262 4.508 6.13 4.57a13.182 13.182 0 0 1-8.134 2.798c-.538 0-1.054-.024-1.57-.09A18.469 18.469 0 0 0 10.064 29c12.072 0 18.672-10 18.672-18.668 0-.29-.01-.57-.024-.848A13.087 13.087 0 0 0 32 6.078z"/>
    </symbol>
    <symbol id="icon-user" viewBox="0 0 32 32">
    <path d="M16 16c4.418 0 8-3.582 8-8s-3.582-8-8-8v0c-4.418 0-8 3.582-8 8s3.582 8 8 8v0zM16 20c-5.339 0-16 2.68-16 8v2c0 1.099 0.901 2 2 2h28c1.099 0 2-0.901 2-2v-2c0-5.32-10.661-8-16-8z"></path>
    </symbol>
    <symbol id="icon-tel" viewBox="0 0 32 32">
    <path d="M28.864 21.822l-4.524-0.517c-0.124-0.015-0.267-0.024-0.413-0.024-0.98 0-1.867 0.398-2.509 1.041l-3.276 3.276c-5.081-2.621-9.119-6.659-11.671-11.59l-0.070-0.149 3.298-3.296c0.642-0.641 1.038-1.528 1.038-2.507 0-0.146-0.009-0.289-0.026-0.43l0.002 0.017-0.517-4.49c-0.213-1.784-1.717-3.153-3.541-3.153-0.001 0-0.003 0-0.004 0h-3.082c-2.014 0-3.687 1.674-3.562 3.687 0.943 15.212 13.11 27.362 28.305 28.308 2.014 0.123 3.687-1.551 3.687-3.564v-3.082c0-0.006 0-0.013 0-0.020 0-1.811-1.363-3.303-3.12-3.506l-0.016-0.002z"></path>
    </symbol>
    <symbol id="icon-email" viewBox="0 0 43 32">
    <path d="M37.333 0h-32c-2.2 0-3.981 1.8-3.981 4l-0.019 24c0 2.2 1.8 4 4 4h32c2.2 0 4-1.8 4-4v-24c0-2.2-1.8-4-4-4zM36.533 8.501l-14.139 8.837c-0.302 0.188-0.668 0.3-1.060 0.3s-0.758-0.112-1.069-0.305l0.009 0.005-14.141-8.84c-0.503-0.301-0.835-0.843-0.835-1.463 0-0.938 0.761-1.699 1.699-1.699 0.349 0 0.673 0.105 0.943 0.285l-0.006-0.004 13.4 8.381 13.4-8.381c0.264-0.176 0.588-0.282 0.937-0.282 0.938 0 1.699 0.761 1.699 1.699 0 0.62-0.332 1.162-0.828 1.459l-0.008 0.004z"></path>
    </symbol>
  </defs>
</svg>
